<svg width="21" height="19" viewBox="0 0 21 19" fill="none" xmlns="http://www.w3.org/2000/svg">
<path d="M6.79336 1.42338V13.8817M13.6646 3.93421V16.7567M0.784607 5.04588V14.3705C0.784607 16.1913 2.07836 16.9388 3.65002 16.038L5.90211 14.7538C6.39086 14.4759 7.20544 14.4471 7.71336 14.7059L12.7446 17.2263C13.2525 17.4755 14.0671 17.4563 14.5559 17.1784L18.7054 14.8017C19.2325 14.495 19.6734 13.7475 19.6734 13.1342V3.80963C19.6734 1.98879 18.3796 1.24129 16.8079 2.14213L14.5559 3.42629C14.0671 3.70421 13.2525 3.73296 12.7446 3.47421L7.71336 0.963377C7.20544 0.714211 6.39086 0.733377 5.90211 1.01129L1.75252 3.38796C1.21586 3.69463 0.784607 4.44213 0.784607 5.04588Z" stroke="white" stroke-width="1.4375" stroke-linecap="round" stroke-linejoin="round"/>
</svg>
