<svg width="21" height="22" viewBox="0 0 21 22" fill="none" xmlns="http://www.w3.org/2000/svg">
<path d="M0.83126 0.883768C0.846177 0.762851 0.894402 0.648458 0.970552 0.553356C1.0467 0.458253 1.14778 0.386181 1.26251 0.345184C1.37808 0.304966 1.50275 0.298665 1.6218 0.327024C1.74084 0.355383 1.84927 0.417219 1.9343 0.505226L13.5819 12.4652L20.1541 19.2129C20.275 19.3372 20.3427 19.5038 20.3427 19.6772C20.3427 19.8506 20.275 20.0171 20.1541 20.1415L19.4565 20.8583C19.1477 21.1794 18.7773 21.4349 18.3674 21.6094C17.9575 21.7839 17.5166 21.8738 17.0712 21.8738C16.6257 21.8738 16.1848 21.7839 15.7749 21.6094C15.3651 21.4349 14.9947 21.1794 14.6859 20.8583L10.498 16.5583L8.9838 18.1136C8.91999 18.1792 8.84293 18.2303 8.75778 18.2637C8.67263 18.297 8.58134 18.3119 8.49 18.3071C8.39867 18.3024 8.30939 18.2783 8.22812 18.2363C8.14686 18.1944 8.07549 18.1355 8.01876 18.0638L4.31001 13.4034C2.92431 11.6618 1.90499 9.65808 1.3133 7.51256C0.712141 5.35722 0.548244 3.1034 0.83126 0.883768ZM15.6088 19.9287L15.4458 20.0888L15.6088 19.9297C15.798 20.127 16.0252 20.284 16.2767 20.3912C16.5282 20.4984 16.7987 20.5537 17.0721 20.5537C17.3455 20.5537 17.6161 20.4984 17.8676 20.3912C18.1191 20.284 18.3463 20.127 18.5355 19.9297L18.7818 19.6767L13.1219 13.8654L11.4122 15.6201L15.6088 19.9287ZM5.32009 12.5726L8.57268 16.6608L12.2086 12.9281L2.00618 2.4516C1.88159 6.10285 3.05651 9.72727 5.32009 12.5726Z" fill="white"/>
</svg>
