<svg width="17" height="20" viewBox="0 0 17 20" fill="none" xmlns="http://www.w3.org/2000/svg">
<path fill-rule="evenodd" clip-rule="evenodd" d="M8.41002 0.746277C8.21939 0.746277 8.03658 0.822002 7.90178 0.956794C7.76699 1.09159 7.69127 1.2744 7.69127 1.46503V12.2559C6.97253 11.6462 6.06458 11.3046 5.1222 11.2894C4.17981 11.2742 3.26132 11.5863 2.52329 12.1725C1.78526 12.7587 1.27339 13.5827 1.07491 14.5041C0.876442 15.4255 1.00366 16.3872 1.43489 17.2252C1.86611 18.0633 2.57465 18.7259 3.43972 19.1C4.30479 19.4742 5.27284 19.5367 6.17886 19.277C7.08488 19.0173 7.87278 18.4514 8.40825 17.6757C8.94372 16.9001 9.19362 15.9628 9.11535 15.0235C9.12445 14.9768 9.12894 14.9293 9.12877 14.8817V6.01711H14.16C14.859 6.01711 15.5293 5.73945 16.0235 5.24521C16.5178 4.75098 16.7954 4.08065 16.7954 3.38169C16.7954 2.68274 16.5178 2.01241 16.0235 1.51817C15.5293 1.02394 14.859 0.746277 14.16 0.746277H8.41002ZM9.12877 4.57961H14.16C14.4777 4.57961 14.7824 4.4534 15.0071 4.22875C15.2317 4.0041 15.3579 3.6994 15.3579 3.38169C15.3579 3.06399 15.2317 2.75929 15.0071 2.53464C14.7824 2.30999 14.4777 2.18378 14.16 2.18378H9.12877V4.57961ZM5.05585 12.7254C4.3569 12.7254 3.68657 13.0031 3.19233 13.4973C2.69809 13.9916 2.42043 14.6619 2.42043 15.3609C2.42043 16.0598 2.69809 16.7301 3.19233 17.2244C3.68657 17.7186 4.3569 17.9963 5.05585 17.9963C5.75481 17.9963 6.42514 17.7186 6.91937 17.2244C7.41361 16.7301 7.69127 16.0598 7.69127 15.3609C7.69127 14.6619 7.41361 13.9916 6.91937 13.4973C6.42514 13.0031 5.75481 12.7254 5.05585 12.7254Z" fill="white"/>
</svg>
