<svg width="15" height="21" viewBox="0 0 15 21" fill="none" xmlns="http://www.w3.org/2000/svg">
<path fill-rule="evenodd" clip-rule="evenodd" d="M5.72926 1.03519C5.81473 0.936832 5.92533 0.863564 6.04924 0.82322C6.17314 0.782876 6.30568 0.776974 6.43267 0.806145C9.89034 1.6006 11.6393 5.38985 11.2272 8.78044C11.0681 10.0991 10.6733 11.1322 10.0916 11.9544L10.081 11.9698C10.2133 11.9046 10.335 11.8346 10.449 11.7609C11.0164 11.3919 11.4323 10.906 11.9747 10.2735L12.1769 10.0378C12.254 9.94817 12.352 9.87896 12.4622 9.83628C12.5724 9.7936 12.6915 9.77875 12.8088 9.79306C12.9261 9.80737 13.0381 9.8504 13.1348 9.91832C13.2316 9.98625 13.3101 10.077 13.3633 10.1825C13.9678 11.3792 14.213 12.7253 14.0696 14.0584C13.9261 15.3914 13.3999 16.6545 12.5547 17.6952C11.7094 18.7359 10.581 19.5098 9.30571 19.9236C8.03041 20.3373 6.66263 20.3733 5.36737 20.027C4.0721 19.6808 2.90467 18.9672 2.0059 17.9723C1.10713 16.9774 0.515406 15.7438 0.302112 14.4201C0.088817 13.0964 0.26306 11.7393 0.803822 10.5125C1.34458 9.28561 2.22877 8.24142 3.34972 7.50585L3.41392 7.44069C3.44729 7.40714 3.48388 7.37696 3.52317 7.3506C4.35213 6.79189 4.94822 6.33477 5.34976 5.7981C5.7283 5.29114 5.96117 4.67206 5.96117 3.73385C5.96215 3.06074 5.83936 2.39319 5.59892 1.76448C5.55245 1.64275 5.53993 1.51068 5.56272 1.38239C5.58551 1.2541 5.64274 1.13442 5.7283 1.03614L5.72926 1.03519ZM7.32392 2.70556C7.37376 3.04098 7.39963 3.38406 7.39963 3.73289C7.39963 4.94806 7.0853 5.87669 6.50167 6.65773C5.95447 7.39181 5.19547 7.95435 4.38567 8.50252L4.31572 8.57248C4.27856 8.60977 4.23743 8.64288 4.19305 8.67119C3.33498 9.21966 2.64569 9.99518 2.20169 10.9117C1.75769 11.8282 1.57635 12.8498 1.6778 13.8631C1.77925 14.8764 2.15952 15.8418 2.7764 16.6521C3.39328 17.4624 4.22264 18.0858 5.17241 18.4533C6.12218 18.8208 7.1552 18.9179 8.15681 18.7338C9.15841 18.5497 10.0894 18.0917 10.8465 17.4106C11.6035 16.7294 12.157 15.8518 12.4455 14.8751C12.734 13.8985 12.7462 12.8609 12.4807 11.8778C12.1165 12.2716 11.7141 12.6531 11.232 12.9664C10.3465 13.5405 9.23867 13.8682 7.63922 13.8682C7.47972 13.8683 7.32474 13.8153 7.19868 13.7176C7.07261 13.6199 6.98262 13.483 6.94288 13.3286C6.90314 13.1741 6.9159 13.0108 6.97916 12.8644C7.04242 12.718 7.15258 12.5968 7.2923 12.5199C7.94301 12.1614 8.49405 11.7235 8.91859 11.1245C9.34026 10.5265 9.66513 9.72823 9.80026 8.60794C10.0945 6.18239 9.09109 3.78944 7.32392 2.70556Z" fill="white"/>
</svg>
