<svg width="25" height="25" viewBox="0 0 25 25" fill="none" xmlns="http://www.w3.org/2000/svg">
<path d="M12.1801 13.28C12.1004 13.27 12.0198 13.27 11.9401 13.28C11.092 13.2515 10.2883 12.8944 9.69862 12.2842C9.10896 11.674 8.77959 10.8585 8.78007 10.01C8.78007 8.2 10.2401 6.73 12.0601 6.73C12.9195 6.72851 13.7451 7.06481 14.3589 7.6664C14.9727 8.268 15.3255 9.08669 15.3412 9.94599C15.3569 10.8053 15.0344 11.6364 14.4431 12.26C13.8517 12.8837 13.039 13.25 12.1801 13.28ZM18.8001 19.88C16.9623 21.5691 14.5561 22.5044 12.0601 22.5C9.46007 22.5 7.10007 21.51 5.32007 19.88C5.42007 18.94 6.02007 18.02 7.09007 17.3C9.83007 15.48 14.3101 15.48 17.0301 17.3C18.1001 18.02 18.7001 18.94 18.8001 19.88Z" stroke="white" stroke-width="1.5" stroke-linecap="round" stroke-linejoin="round"/>
<path d="M12.0601 22.5C17.5831 22.5 22.0601 18.023 22.0601 12.5C22.0601 6.977 17.5831 2.5 12.0601 2.5C6.53706 2.5 2.06006 6.977 2.06006 12.5C2.06006 18.023 6.53706 22.5 12.0601 22.5Z" stroke="white" stroke-width="1.5" stroke-linecap="round" stroke-linejoin="round"/>
</svg>
